<svg width="33" height="33" viewBox="0 0 33 33" fill="none" xmlns="http://www.w3.org/2000/svg">
<circle cx="16.7281" cy="16.7056" r="16.272" fill="#FBF8FF"/>
<path d="M17.271 10C18.1147 10.0021 18.5429 10.0063 18.9127 10.0161L19.0582 10.021C19.2262 10.0266 19.3919 10.0336 19.5921 10.042C20.3901 10.077 20.9346 10.1946 21.4123 10.3675C21.9073 10.5453 22.3243 10.7861 22.7412 11.1746C23.1227 11.5244 23.4178 11.9477 23.6059 12.4149C23.7912 12.8608 23.9172 13.369 23.9547 14.1145C23.9637 14.3007 23.9712 14.4554 23.9772 14.6129L23.9817 14.7487C23.9929 15.0931 23.9974 15.4928 23.9989 16.2802L23.9997 16.8024V17.7194C24.0015 18.23 23.9957 18.7406 23.9824 19.251L23.9779 19.3868C23.9719 19.5443 23.9644 19.699 23.9554 19.8852C23.9179 20.6306 23.7904 21.1381 23.6059 21.5847C23.4178 22.052 23.1227 22.4753 22.7412 22.8251C22.3665 23.1812 21.9129 23.4566 21.4123 23.6322C20.9346 23.8051 20.3901 23.9227 19.5921 23.9577L19.0582 23.9787L18.9127 23.9829C18.5429 23.9927 18.1147 23.9976 17.271 23.999L16.7115 23.9997H15.7298C15.1826 24.0015 14.6353 23.9961 14.0882 23.9836L13.9427 23.9794C13.7646 23.9731 13.5866 23.9658 13.4087 23.9577C12.6107 23.9227 12.0663 23.8051 11.5878 23.6322C11.0874 23.4565 10.6342 23.1811 10.2596 22.8251C9.87784 22.4754 9.58248 22.052 9.39416 21.5847C9.20892 21.1388 9.08292 20.6306 9.04542 19.8852L9.02293 19.3868L9.01918 19.251C9.00535 18.7406 8.9991 18.23 9.00043 17.7194V16.2802C8.99835 15.7697 9.00385 15.2591 9.01693 14.7487L9.02218 14.6129C9.02818 14.4554 9.03567 14.3007 9.04467 14.1145C9.08217 13.369 9.20817 12.8615 9.39341 12.4149C9.58217 11.9475 9.87805 11.5242 10.2604 11.1746C10.6347 10.8187 11.0877 10.5432 11.5878 10.3675C12.0663 10.1946 12.61 10.077 13.4087 10.042C13.6082 10.0336 13.7747 10.0266 13.9427 10.021L14.0882 10.0168C14.635 10.0044 15.1821 9.999 15.7291 10.0007L17.271 10ZM16.5 13.4999C15.5055 13.4999 14.5518 13.8687 13.8485 14.525C13.1453 15.1814 12.7502 16.0716 12.7502 16.9998C12.7502 17.9281 13.1453 18.8183 13.8485 19.4746C14.5518 20.131 15.5055 20.4997 16.5 20.4997C17.4946 20.4997 18.4483 20.131 19.1516 19.4746C19.8548 18.8183 20.2499 17.9281 20.2499 16.9998C20.2499 16.0716 19.8548 15.1814 19.1516 14.525C18.4483 13.8687 17.4946 13.4999 16.5 13.4999ZM16.5 14.8999C16.7955 14.8998 17.0881 14.9541 17.3611 15.0596C17.6341 15.1651 17.8821 15.3197 18.0911 15.5147C18.3 15.7097 18.4658 15.9411 18.5789 16.1959C18.692 16.4507 18.7503 16.7237 18.7503 16.9995C18.7504 17.2752 18.6922 17.5483 18.5792 17.8031C18.4662 18.0579 18.3005 18.2894 18.0916 18.4845C17.8827 18.6795 17.6347 18.8342 17.3618 18.9398C17.0888 19.0454 16.7963 19.0997 16.5008 19.0998C15.9041 19.0998 15.3318 18.8785 14.9099 18.4847C14.488 18.0909 14.2509 17.5568 14.2509 16.9998C14.2509 16.4429 14.488 15.9088 14.9099 15.5149C15.3318 15.1211 15.9041 14.8999 16.5008 14.8999M20.4381 12.4499C20.1895 12.4499 19.951 12.5421 19.7752 12.7062C19.5994 12.8703 19.5006 13.0929 19.5006 13.3249C19.5006 13.557 19.5994 13.7795 19.7752 13.9436C19.951 14.1077 20.1895 14.1999 20.4381 14.1999C20.6867 14.1999 20.9252 14.1077 21.101 13.9436C21.2768 13.7795 21.3756 13.557 21.3756 13.3249C21.3756 13.0929 21.2768 12.8703 21.101 12.7062C20.9252 12.5421 20.6867 12.4499 20.4381 12.4499Z" fill="#F15723"/>
</svg>
