<svg width="33" height="33" viewBox="0 0 33 33" fill="none" xmlns="http://www.w3.org/2000/svg">
<circle cx="16.5362" cy="16.272" r="16.272" fill="#5806C7"/>
<path d="M17.0792 9.56641C17.9229 9.56851 18.3512 9.57271 18.7209 9.58251L18.8664 9.58741C19.0344 9.59301 19.2001 9.60001 19.4004 9.60841C20.1983 9.6434 20.7428 9.761 21.2205 9.9339C21.7155 10.1117 22.1325 10.3525 22.5495 10.741C22.931 11.0908 23.2261 11.5141 23.4142 11.9813C23.5994 12.4272 23.7254 12.9354 23.7629 13.6809C23.7719 13.8671 23.7794 14.0218 23.7854 14.1793L23.7899 14.3151C23.8011 14.6595 23.8056 15.0592 23.8071 15.8467L23.8079 16.3688V17.2858C23.8097 17.7964 23.804 18.307 23.7906 18.8174L23.7861 18.9532C23.7801 19.1107 23.7726 19.2654 23.7636 19.4516C23.7262 20.197 23.5987 20.7045 23.4142 21.1511C23.2261 21.6184 22.931 22.0417 22.5495 22.3915C22.1747 22.7476 21.7211 23.023 21.2205 23.1986C20.7428 23.3715 20.1983 23.4891 19.4004 23.5241L18.8664 23.5451L18.7209 23.5493C18.3512 23.5591 17.9229 23.564 17.0792 23.5654L16.5198 23.5661H15.5381C14.9908 23.5679 14.4435 23.5625 13.8964 23.55L13.7509 23.5458C13.5729 23.5395 13.3949 23.5322 13.2169 23.5241C12.419 23.4891 11.8745 23.3715 11.396 23.1986C10.8957 23.0229 10.4424 22.7475 10.0678 22.3915C9.68607 22.0418 9.39071 21.6184 9.20238 21.1511C9.01714 20.7052 8.89115 20.197 8.85365 19.4516L8.83115 18.9532L8.8274 18.8174C8.81358 18.307 8.80733 17.7964 8.80865 17.2858V15.8467C8.80658 15.3361 8.81208 14.8255 8.82515 14.3151L8.8304 14.1793C8.8364 14.0218 8.8439 13.8671 8.8529 13.6809C8.8904 12.9354 9.01639 12.4279 9.20163 11.9813C9.3904 11.5139 9.68628 11.0906 10.0686 10.741C10.4429 10.3851 10.8959 10.1096 11.396 9.9339C11.8745 9.761 12.4182 9.6434 13.2169 9.60841C13.4164 9.60001 13.5829 9.59301 13.7509 9.58741L13.8964 9.58321C14.4433 9.57077 14.9903 9.5654 15.5373 9.56711L17.0792 9.56641ZM16.3083 13.0663C15.3138 13.0663 14.36 13.4351 13.6568 14.0914C12.9535 14.7478 12.5585 15.638 12.5585 16.5662C12.5585 17.4945 12.9535 18.3847 13.6568 19.0411C14.36 19.6974 15.3138 20.0662 16.3083 20.0662C17.3028 20.0662 18.2566 19.6974 18.9598 19.0411C19.663 18.3847 20.0581 17.4945 20.0581 16.5662C20.0581 15.638 19.663 14.7478 18.9598 14.0914C18.2566 13.4351 17.3028 13.0663 16.3083 13.0663ZM16.3083 14.4663C16.6037 14.4662 16.8963 14.5205 17.1693 14.626C17.4423 14.7315 17.6903 14.8861 17.8993 15.0811C18.1083 15.2761 18.274 15.5075 18.3871 15.7623C18.5002 16.0171 18.5585 16.2901 18.5585 16.5659C18.5586 16.8417 18.5004 17.1147 18.3874 17.3695C18.2744 17.6243 18.1087 17.8558 17.8998 18.0509C17.6909 18.2459 17.4429 18.4006 17.17 18.5062C16.897 18.6118 16.6045 18.6661 16.309 18.6662C15.7123 18.6662 15.1401 18.4449 14.7181 18.0511C14.2962 17.6573 14.0591 17.1232 14.0591 16.5662C14.0591 16.0093 14.2962 15.4752 14.7181 15.0813C15.1401 14.6875 15.7123 14.4663 16.309 14.4663M20.2463 12.0163C19.9977 12.0163 19.7593 12.1085 19.5834 12.2726C19.4076 12.4367 19.3089 12.6593 19.3089 12.8913C19.3089 13.1234 19.4076 13.3459 19.5834 13.51C19.7593 13.6741 19.9977 13.7663 20.2463 13.7663C20.495 13.7663 20.7334 13.6741 20.9092 13.51C21.085 13.3459 21.1838 13.1234 21.1838 12.8913C21.1838 12.6593 21.085 12.4367 20.9092 12.2726C20.7334 12.1085 20.495 12.0163 20.2463 12.0163Z" fill="#FBF8FF"/>
</svg>
