<svg width="34" height="33" viewBox="0 0 34 33" fill="none" xmlns="http://www.w3.org/2000/svg">
<circle cx="16.9922" cy="16.272" r="16.272" fill="#5806C7"/>
<path fill-rule="evenodd" clip-rule="evenodd" d="M21.3402 9.56641C21.9148 9.56641 22.4659 9.81224 22.8722 10.2498C23.2786 10.6874 23.5068 11.2809 23.5068 11.8997V21.2331C23.5068 21.8519 23.2786 22.4454 22.8722 22.883C22.4659 23.3206 21.9148 23.5664 21.3402 23.5664H12.6735C12.0989 23.5664 11.5478 23.3206 11.1414 22.883C10.7351 22.4454 10.5068 21.8519 10.5068 21.2331V11.8997C10.5068 11.2809 10.7351 10.6874 11.1414 10.2498C11.5478 9.81224 12.0989 9.56641 12.6735 9.56641H21.3402ZM14.1179 15.0109C13.9264 15.0109 13.7427 15.0928 13.6073 15.2387C13.4718 15.3845 13.3957 15.5823 13.3957 15.7886V19.6775C13.3957 19.8838 13.4718 20.0816 13.6073 20.2275C13.7427 20.3734 13.9264 20.4553 14.1179 20.4553C14.3095 20.4553 14.4932 20.3734 14.6286 20.2275C14.7641 20.0816 14.8402 19.8838 14.8402 19.6775V15.7886C14.8402 15.5823 14.7641 15.3845 14.6286 15.2387C14.4932 15.0928 14.3095 15.0109 14.1179 15.0109ZM16.2846 14.2331C16.0931 14.2331 15.9094 14.315 15.7739 14.4609C15.6385 14.6067 15.5624 14.8046 15.5624 15.0109V19.6775C15.5624 19.8838 15.6385 20.0816 15.7739 20.2275C15.9094 20.3734 16.0931 20.4553 16.2846 20.4553C16.4762 20.4553 16.6599 20.3734 16.7953 20.2275C16.9307 20.0816 17.0068 19.8838 17.0068 19.6775V16.8309C17.2271 16.5633 17.5991 16.2491 18.0129 16.0585C18.2534 15.9481 18.6152 15.903 18.8666 15.9885C18.9499 16.0113 19.0242 16.0626 19.0782 16.1347C19.1157 16.1892 19.1735 16.3105 19.1735 16.5664V19.6775C19.1735 19.8838 19.2496 20.0816 19.385 20.2275C19.5205 20.3734 19.7042 20.4553 19.8957 20.4553C20.0873 20.4553 20.271 20.3734 20.4064 20.2275C20.5419 20.0816 20.6179 19.8838 20.6179 19.6775V16.5664C20.6179 16.0453 20.4952 15.5817 20.2395 15.21C20.0042 14.8728 19.675 14.6256 19.2999 14.5045C18.6484 14.2844 17.9269 14.4065 17.4452 14.629C17.291 14.7004 17.1408 14.7814 16.9953 14.8716C16.965 14.6924 16.8773 14.5303 16.7474 14.4136C16.6175 14.2969 16.4538 14.233 16.2846 14.2331ZM14.1179 12.6775C13.9264 12.6775 13.7427 12.7595 13.6073 12.9053C13.4718 13.0512 13.3957 13.249 13.3957 13.4553C13.3957 13.6616 13.4718 13.8594 13.6073 14.0053C13.7427 14.1511 13.9264 14.2331 14.1179 14.2331C14.3095 14.2331 14.4932 14.1511 14.6286 14.0053C14.7641 13.8594 14.8402 13.6616 14.8402 13.4553C14.8402 13.249 14.7641 13.0512 14.6286 12.9053C14.4932 12.7595 14.3095 12.6775 14.1179 12.6775Z" fill="#FBF8FF"/>
</svg>
