<svg width="33" height="33" viewBox="0 0 33 33" fill="none" xmlns="http://www.w3.org/2000/svg">
<circle cx="16.4854" cy="16.7056" r="16.272" fill="#FBF8FF"/>
<path fill-rule="evenodd" clip-rule="evenodd" d="M20.8333 10C21.408 10 21.9591 10.2458 22.3654 10.6834C22.7717 11.121 23 11.7145 23 12.3333V21.6667C23 22.2855 22.7717 22.879 22.3654 23.3166C21.9591 23.7542 21.408 24 20.8333 24H12.1667C11.592 24 11.0409 23.7542 10.6346 23.3166C10.2283 22.879 10 22.2855 10 21.6667V12.3333C10 11.7145 10.2283 11.121 10.6346 10.6834C11.0409 10.2458 11.592 10 12.1667 10H20.8333ZM13.6111 15.4444C13.4196 15.4444 13.2359 15.5264 13.1004 15.6723C12.965 15.8181 12.8889 16.0159 12.8889 16.2222V20.1111C12.8889 20.3174 12.965 20.5152 13.1004 20.6611C13.2359 20.8069 13.4196 20.8889 13.6111 20.8889C13.8027 20.8889 13.9864 20.8069 14.1218 20.6611C14.2572 20.5152 14.3333 20.3174 14.3333 20.1111V16.2222C14.3333 16.0159 14.2572 15.8181 14.1218 15.6723C13.9864 15.5264 13.8027 15.4444 13.6111 15.4444ZM15.7778 14.6667C15.5862 14.6667 15.4025 14.7486 15.2671 14.8945C15.1316 15.0403 15.0556 15.2382 15.0556 15.4444V20.1111C15.0556 20.3174 15.1316 20.5152 15.2671 20.6611C15.4025 20.8069 15.5862 20.8889 15.7778 20.8889C15.9693 20.8889 16.153 20.8069 16.2885 20.6611C16.4239 20.5152 16.5 20.3174 16.5 20.1111V17.2644C16.7203 16.9969 17.0922 16.6827 17.5061 16.4921C17.7466 16.3817 18.1084 16.3366 18.3597 16.4221C18.4431 16.4449 18.5174 16.4962 18.5713 16.5683C18.6089 16.6228 18.6667 16.7441 18.6667 17V20.1111C18.6667 20.3174 18.7428 20.5152 18.8782 20.6611C19.0136 20.8069 19.1973 20.8889 19.3889 20.8889C19.5804 20.8889 19.7641 20.8069 19.8996 20.6611C20.035 20.5152 20.1111 20.3174 20.1111 20.1111V17C20.1111 16.4789 19.9883 16.0153 19.7327 15.6436C19.4974 15.3064 19.1681 15.0592 18.7931 14.9381C18.1416 14.718 17.4201 14.8401 16.9384 15.0626C16.7842 15.134 16.6339 15.215 16.4884 15.3052C16.4582 15.126 16.3704 14.9639 16.2406 14.8472C16.1107 14.7305 15.9469 14.6666 15.7778 14.6667ZM13.6111 13.1111C13.4196 13.1111 13.2359 13.1931 13.1004 13.3389C12.965 13.4848 12.8889 13.6826 12.8889 13.8889C12.8889 14.0952 12.965 14.293 13.1004 14.4389C13.2359 14.5847 13.4196 14.6667 13.6111 14.6667C13.8027 14.6667 13.9864 14.5847 14.1218 14.4389C14.2572 14.293 14.3333 14.0952 14.3333 13.8889C14.3333 13.6826 14.2572 13.4848 14.1218 13.3389C13.9864 13.1931 13.8027 13.1111 13.6111 13.1111Z" fill="#F15723"/>
</svg>
