<svg width="128" height="53" viewBox="0 0 128 53" fill="none" xmlns="http://www.w3.org/2000/svg">
<path d="M10.8577 30.4176H23.5926V35.0988L17.9132 48.7087H12.7588L18.4382 35.0988H10.8577H6.17651V30.4176V26.1382H10.8577V30.4176Z" fill="white"/>
<path d="M44.3179 30.4177V35.0989H48.0883L48.6252 35.6398V44.0595H47.619H43.1526V48.7446H49.5559H53.3103V33.6989L50.0252 30.4177H44.3179Z" fill="white"/>
<path d="M43.1882 35.0989V30.4177H24.8892V35.0989H32.064H35.6315H38.9883L35.6315 38.2448V48.7088H40.3127V35.0989H43.1882Z" fill="white"/>
<path d="M4.68116 31.6267H0V53.0001H4.68116V31.6267Z" fill="white"/>
<path d="M67.5444 30.4177H54.4038V35.0989H65.6036L67.3177 36.813V48.7088H72.0029V34.8722L67.5444 30.4177Z" fill="white"/>
<path d="M67.4572 11.2158H54.3762V15.6305H55.0643H58.0114L54.8455 18.5935V28.449H59.2562V15.6305H65.6317L67.4651 17.464V24.0701H61.5869V28.4808H69.227H71.8758V15.6345L67.4572 11.2158Z" fill="#F15723"/>
<path d="M49.1144 17.2413V28.449H53.5251V15.4157L49.3291 11.2158H38.5271V15.6305H47.5036L49.1144 17.2413Z" fill="#F15723"/>
<path d="M59.3357 39.2988H54.6545V48.7089H59.3357V39.2988Z" fill="white"/>
<path d="M18.2593 15.6305H21.3059V11.2158H11.5896V15.6305H13.8486H17.0105L13.8486 18.5935V28.449H18.2593V15.6305Z" fill="#F15723"/>
<path d="M37.7552 24.0621V15.6345L33.3365 11.2158H22.3118V15.6305H31.511L33.3445 17.464V22.2366L31.511 24.0701H22.3118V28.4808H33.3365L37.7552 24.0621Z" fill="#F15723"/>
<path d="M0 30.2267H1.34032L2.67665 26.1382H0.548854L0 30.2267Z" fill="white"/>
<path d="M2.13574 30.2228H3.47605L5.4368 26.1382H3.29707L2.13574 30.2228Z" fill="white"/>
<path d="M98.9443 0L90.9342 7.9504V0L75.7612 11.4742V52.5864L90.9103 37.3537L106.135 52.1608H127.978V0H98.9483H98.9443ZM114.034 37.2861H90.9382V13.5543H114.034V37.2861Z" fill="white"/>
</svg>
