<svg width="34" height="33" viewBox="0 0 34 33" fill="none" xmlns="http://www.w3.org/2000/svg">
<circle cx="16.9041" cy="16.272" r="16.272" fill="#5806C7"/>
<path d="M19.7639 9.56641H16.9072C16.7216 9.56641 16.5436 9.64016 16.4124 9.77143C16.2812 9.90271 16.2075 10.0808 16.2075 10.2664V18.3164C16.2076 18.4908 16.1642 18.6625 16.0814 18.8159C15.9985 18.9694 15.8788 19.0998 15.733 19.1953C15.5871 19.2909 15.4198 19.3486 15.2461 19.3632C15.0724 19.3779 14.8978 19.349 14.738 19.2792C14.5782 19.2094 14.4384 19.1009 14.331 18.9634C14.2237 18.826 14.1523 18.664 14.1232 18.492C14.0941 18.3201 14.1083 18.1436 14.1645 17.9785C14.2207 17.8134 14.3171 17.6649 14.445 17.5464L14.529 17.4764C14.6158 17.4111 14.6862 17.3265 14.7346 17.2294C14.7831 17.1322 14.8082 17.025 14.8082 16.9164V13.8882C14.8083 13.7825 14.7844 13.6782 14.7385 13.5831C14.6925 13.488 14.6256 13.4045 14.5429 13.3389C14.4601 13.2733 14.3635 13.2273 14.2604 13.2043C14.1573 13.1814 14.0504 13.1821 13.9476 13.2064C12.6945 13.5019 11.5938 14.2478 10.8547 15.3024C10.1156 16.357 9.78984 17.6467 9.93931 18.9259C10.0888 20.2052 10.7031 21.3849 11.6653 22.2405C12.6276 23.0962 13.8706 23.568 15.158 23.5664L15.328 23.5629C16.6895 23.5187 17.9804 22.9467 18.9279 21.9676C19.8754 20.9885 20.4053 19.6792 20.4055 18.3164V16.4264L20.6231 16.5335C21.4081 16.9045 22.2554 17.1411 23.1349 17.2286C23.2322 17.2383 23.3304 17.2275 23.4233 17.1968C23.5161 17.1662 23.6015 17.1164 23.674 17.0507C23.7464 16.985 23.8043 16.9049 23.8439 16.8154C23.8835 16.726 23.9039 16.6292 23.9038 16.5314V13.7083C23.9038 13.5428 23.8452 13.3827 23.7383 13.2563C23.6315 13.13 23.4834 13.0456 23.3203 13.0181C22.6043 12.8966 21.9438 12.5553 21.4302 12.0416C20.9167 11.5279 20.5754 10.8672 20.4538 10.1509C20.4265 9.98758 20.3422 9.83924 20.2158 9.73222C20.0895 9.62521 19.9294 9.56645 19.7639 9.56641Z" fill="#FBF8FF"/>
</svg>
