<svg width="34" height="33" viewBox="0 0 34 33" fill="none" xmlns="http://www.w3.org/2000/svg">
<circle cx="17" cy="16.7056" r="16.272" fill="#FBF8FF"/>
<path d="M19.8601 10H17.0034C16.8178 10 16.6398 10.0737 16.5086 10.205C16.3774 10.3363 16.3037 10.5143 16.3037 10.7V18.75C16.3038 18.9244 16.2604 19.0961 16.1776 19.2495C16.0947 19.403 15.975 19.5334 15.8291 19.6289C15.6833 19.7245 15.516 19.7822 15.3423 19.7968C15.1686 19.8115 14.9939 19.7826 14.8342 19.7128C14.6744 19.643 14.5346 19.5345 14.4272 19.397C14.3199 19.2596 14.2485 19.0976 14.2194 18.9256C14.1903 18.7537 14.2045 18.5772 14.2607 18.4121C14.3169 18.247 14.4133 18.0985 14.5412 17.98L14.6252 17.91C14.712 17.8447 14.7824 17.7601 14.8308 17.6629C14.8793 17.5658 14.9044 17.4586 14.9044 17.35V14.3218C14.9044 14.2161 14.8806 14.1118 14.8347 14.0167C14.7887 13.9215 14.7218 13.8381 14.639 13.7725C14.5562 13.7069 14.4597 13.6609 14.3566 13.6379C14.2535 13.615 14.1465 13.6157 14.0438 13.64C12.7907 13.9355 11.69 14.6814 10.9509 15.736C10.2118 16.7906 9.88603 18.0803 10.0355 19.3595C10.185 20.6388 10.7993 21.8185 11.7615 22.6741C12.7238 23.5298 13.9668 24.0016 15.2542 24L15.4242 23.9965C16.7856 23.9523 18.0766 23.3803 19.0241 22.4012C19.9716 21.4221 20.5015 20.1128 20.5017 18.75V16.86L20.7193 16.9671C21.5043 17.3381 22.3516 17.5747 23.2311 17.6622C23.3284 17.6719 23.4266 17.6611 23.5195 17.6304C23.6123 17.5998 23.6977 17.55 23.7702 17.4843C23.8426 17.4186 23.9005 17.3385 23.9401 17.249C23.9797 17.1596 24.0001 17.0628 24 16.965V14.1419C24 13.9764 23.9414 13.8163 23.8345 13.6899C23.7277 13.5636 23.5796 13.4792 23.4165 13.4517C22.7005 13.3302 22.04 12.9889 21.5264 12.4752C21.0129 11.9615 20.6716 11.3008 20.55 10.5845C20.5226 10.4212 20.4383 10.2728 20.312 10.1658C20.1857 10.0588 20.0256 10 19.8601 10Z" fill="#F15723"/>
</svg>
