<svg width="34" height="33" viewBox="0 0 34 33" fill="none" xmlns="http://www.w3.org/2000/svg">
<circle cx="16.7574" cy="16.7056" r="16.272" fill="#FBF8FF"/>
<mask id="mask0_187_1787" style="mask-type:luminance" maskUnits="userSpaceOnUse" x="9" y="9" width="16" height="15">
<path d="M9.85986 9.80811H24.0517V24H9.85986V9.80811Z" fill="white"/>
</mask>
<g mask="url(#mask0_187_1787)">
<path d="M18.2928 9.91295L17.8671 9.8532C16.5875 9.66845 15.2818 9.85122 14.1021 10.3802C12.9225 10.9092 11.9175 11.7626 11.2044 12.841C10.4456 13.8717 9.99326 15.0958 9.89944 16.3723C9.80562 17.6488 10.0741 18.9258 10.674 20.0564C10.7354 20.1697 10.7737 20.2941 10.7865 20.4224C10.7993 20.5506 10.7865 20.6801 10.7487 20.8034C10.4425 21.8565 10.1586 22.9172 9.85986 24.0301L10.2333 23.9181C11.2417 23.6492 12.2501 23.3803 13.2584 23.1338C13.4713 23.0896 13.6925 23.1104 13.8933 23.1936C14.798 23.6351 15.7867 23.878 16.793 23.906C17.7993 23.934 18.8 23.7464 19.7278 23.3558C20.6556 22.9653 21.4892 22.3807 22.1725 21.6415C22.8559 20.9023 23.3732 20.0254 23.6897 19.0698C24.0063 18.1142 24.1148 17.1019 24.008 16.1009C23.9011 15.0999 23.5814 14.1334 23.0702 13.2661C22.5591 12.3988 21.8683 11.6509 21.0443 11.0726C20.2204 10.4943 19.2822 10.0989 18.2928 9.91295ZM20.1751 19.7128C19.9037 19.9559 19.5726 20.1226 19.2157 20.1961C18.8588 20.2696 18.4888 20.2472 18.1434 20.1311C16.5783 19.6904 15.2204 18.7084 14.3116 17.36C13.9645 16.8831 13.6855 16.3602 13.4825 15.8063C13.3726 15.485 13.3528 15.1397 13.4252 14.8078C13.4976 14.476 13.6595 14.1704 13.8933 13.924C14.0072 13.7788 14.1621 13.6711 14.338 13.6152C14.5138 13.5592 14.7025 13.5575 14.8793 13.6103C15.0287 13.6477 15.1333 13.8643 15.2677 14.0286C15.3768 14.3371 15.5045 14.6389 15.6487 14.9324C15.758 15.0822 15.8037 15.2691 15.7757 15.4524C15.7477 15.6358 15.6483 15.8006 15.4993 15.9109C15.1631 16.2097 15.2154 16.4562 15.4545 16.7923C15.9829 17.5535 16.712 18.1534 17.5608 18.5252C17.7999 18.6298 17.9791 18.6522 18.136 18.4057C18.2032 18.3086 18.2928 18.2264 18.3675 18.1368C18.8008 17.5915 18.6663 17.599 19.3535 17.8978C19.5723 17.9896 19.7845 18.0972 19.9884 18.2189C20.1901 18.3385 20.4963 18.4654 20.5411 18.6447C20.5842 18.8392 20.5729 19.0418 20.5083 19.2302C20.4438 19.4187 20.3285 19.5857 20.1751 19.7128Z" fill="#F15723"/>
</g>
</svg>
