<svg width="33" height="33" viewBox="0 0 33 33" fill="none" xmlns="http://www.w3.org/2000/svg">
<circle cx="16.3601" cy="16.272" r="16.272" fill="#5806C7"/>
<mask id="mask0_136_8716" style="mask-type:luminance" maskUnits="userSpaceOnUse" x="9" y="9" width="15" height="15">
<path d="M9.46259 9.37451H23.6545V23.5664H9.46259V9.37451Z" fill="white"/>
</mask>
<g mask="url(#mask0_136_8716)">
<path d="M17.8956 9.47936L17.4698 9.41961C16.1902 9.23485 14.8845 9.41763 13.7049 9.94662C12.5252 10.4756 11.5202 11.329 10.8071 12.4074C10.0483 13.4381 9.59598 14.6622 9.50216 15.9387C9.40834 17.2152 9.67684 18.4922 10.2768 19.6228C10.3381 19.7361 10.3764 19.8605 10.3892 19.9888C10.402 20.117 10.3892 20.2465 10.3514 20.3698C10.0452 21.423 9.76136 22.4836 9.46259 23.5966L9.83606 23.4845C10.8444 23.2156 11.8528 22.9467 12.8612 22.7002C13.074 22.656 13.2952 22.6768 13.4961 22.76C14.4008 23.2015 15.3894 23.4444 16.3957 23.4724C17.402 23.5004 18.4027 23.3128 19.3305 22.9222C20.2583 22.5317 21.0919 21.9472 21.7752 21.2079C22.4586 20.4687 22.9759 19.5918 23.2925 18.6362C23.609 17.6806 23.7175 16.6683 23.6107 15.6673C23.5038 14.6663 23.1841 13.6998 22.6729 12.8325C22.1618 11.9652 21.4711 11.2173 20.6471 10.639C19.8231 10.0607 18.8849 9.66528 17.8956 9.47936ZM19.7778 19.2792C19.5064 19.5223 19.1753 19.689 18.8184 19.7625C18.4616 19.836 18.0916 19.8136 17.7462 19.6975C16.181 19.2568 14.8231 18.2748 13.9144 16.9264C13.5672 16.4495 13.2882 15.9266 13.0853 15.3727C12.9753 15.0514 12.9555 14.7061 13.0279 14.3742C13.1004 14.0424 13.2623 13.7368 13.4961 13.4904C13.6099 13.3452 13.7648 13.2375 13.9407 13.1816C14.1166 13.1256 14.3052 13.1239 14.482 13.1767C14.6314 13.2141 14.736 13.4307 14.8704 13.595C14.9795 13.9035 15.1072 14.2053 15.2514 14.4988C15.3608 14.6486 15.4064 14.8355 15.3784 15.0189C15.3505 15.2022 15.2511 15.367 15.102 15.4773C14.7659 15.7761 14.8182 16.0226 15.0572 16.3587C15.5856 17.1199 16.3147 17.7198 17.1636 18.0916C17.4026 18.1962 17.5818 18.2186 17.7387 17.9721C17.8059 17.875 17.8956 17.7928 17.9702 17.7032C18.4035 17.1579 18.269 17.1654 18.9562 17.4642C19.1751 17.556 19.3872 17.6636 19.5911 17.7853C19.7928 17.9049 20.099 18.0318 20.1438 18.2111C20.187 18.4056 20.1756 18.6082 20.111 18.7966C20.0465 18.9851 19.9312 19.1521 19.7778 19.2792Z" fill="#FBF8FF"/>
</g>
</svg>
