<svg width="33" height="33" viewBox="0 0 33 33" fill="none" xmlns="http://www.w3.org/2000/svg">
<circle cx="16.272" cy="16.7056" r="16.272" fill="#FBF8FF"/>
<path d="M15 18.8571L18.8925 16.5L15 14.1429V18.8571ZM23.67 12.705C23.7675 13.0743 23.835 13.5693 23.88 14.1979C23.9325 14.8264 23.955 15.3686 23.955 15.84L24 16.5C24 18.2207 23.88 19.4857 23.67 20.295C23.4825 21.0021 23.0475 21.4579 22.3725 21.6543C22.02 21.7564 21.375 21.8271 20.385 21.8743C19.41 21.9293 18.5175 21.9529 17.6925 21.9529L16.5 22C13.3575 22 11.4 21.8743 10.6275 21.6543C9.9525 21.4579 9.5175 21.0021 9.33 20.295C9.2325 19.9257 9.165 19.4307 9.12 18.8021C9.0675 18.1736 9.045 17.6314 9.045 17.16L9 16.5C9 14.7793 9.12 13.5143 9.33 12.705C9.5175 11.9979 9.9525 11.5421 10.6275 11.3457C10.98 11.2436 11.625 11.1729 12.615 11.1257C13.59 11.0707 14.4825 11.0471 15.3075 11.0471L16.5 11C19.6425 11 21.6 11.1257 22.3725 11.3457C23.0475 11.5421 23.4825 11.9979 23.67 12.705Z" fill="#F15723"/>
</svg>
