<svg width="33" height="33" viewBox="0 0 33 33" fill="none" xmlns="http://www.w3.org/2000/svg">
<circle cx="16.272" cy="16.272" r="16.272" fill="#5806C7"/>
<path d="M15 18.4235L18.8925 16.0664L15 13.7093V18.4235ZM23.67 12.2714C23.7675 12.6407 23.835 13.1357 23.88 13.7643C23.9325 14.3928 23.955 14.935 23.955 15.4064L24 16.0664C24 17.7871 23.88 19.0521 23.67 19.8614C23.4825 20.5685 23.0475 21.0243 22.3725 21.2207C22.02 21.3228 21.375 21.3935 20.385 21.4407C19.41 21.4957 18.5175 21.5193 17.6925 21.5193L16.5 21.5664C13.3575 21.5664 11.4 21.4407 10.6275 21.2207C9.9525 21.0243 9.5175 20.5685 9.33 19.8614C9.2325 19.4921 9.165 18.9971 9.12 18.3685C9.0675 17.74 9.045 17.1978 9.045 16.7264L9 16.0664C9 14.3457 9.12 13.0807 9.33 12.2714C9.5175 11.5643 9.9525 11.1085 10.6275 10.9121C10.98 10.81 11.625 10.7393 12.615 10.6921C13.59 10.6371 14.4825 10.6135 15.3075 10.6135L16.5 10.5664C19.6425 10.5664 21.6 10.6921 22.3725 10.9121C23.0475 11.1085 23.4825 11.5643 23.67 12.2714Z" fill="#FBF8FF"/>
</svg>
